<svg xmlns="http://www.w3.org/2000/svg" xmlns:xlink="http://www.w3.org/1999/xlink" width="345" zoomAndPan="magnify" viewBox="0 0 258.75 61.499998" height="82" preserveAspectRatio="xMidYMid meet" version="1.0"><defs><g/></defs><g fill="#000000" fill-opacity="1"><g transform="translate(1.037012, 44.547006)"><g><path d="M 14.390625 -26.84375 C 15.878906 -26.84375 17.351562 -26.671875 18.8125 -26.328125 C 20.269531 -25.992188 21.351562 -25.65625 22.0625 -25.3125 L 23.140625 -24.8125 L 20.1875 -18.90625 C 18.15625 -20 16.222656 -20.546875 14.390625 -20.546875 C 13.367188 -20.546875 12.644531 -20.429688 12.21875 -20.203125 C 11.800781 -19.984375 11.59375 -19.570312 11.59375 -18.96875 C 11.59375 -18.832031 11.609375 -18.695312 11.640625 -18.5625 C 11.671875 -18.425781 11.738281 -18.296875 11.84375 -18.171875 C 11.945312 -18.054688 12.039062 -17.957031 12.125 -17.875 C 12.207031 -17.789062 12.347656 -17.695312 12.546875 -17.59375 C 12.753906 -17.488281 12.914062 -17.410156 13.03125 -17.359375 C 13.15625 -17.304688 13.351562 -17.226562 13.625 -17.125 C 13.894531 -17.03125 14.097656 -16.957031 14.234375 -16.90625 C 14.367188 -16.851562 14.597656 -16.773438 14.921875 -16.671875 C 15.242188 -16.578125 15.488281 -16.507812 15.65625 -16.46875 C 16.707031 -16.164062 17.625 -15.828125 18.40625 -15.453125 C 19.1875 -15.078125 20.007812 -14.566406 20.875 -13.921875 C 21.738281 -13.285156 22.40625 -12.472656 22.875 -11.484375 C 23.351562 -10.503906 23.59375 -9.390625 23.59375 -8.140625 C 23.59375 -2.203125 19.472656 0.765625 11.234375 0.765625 C 9.367188 0.765625 7.597656 0.476562 5.921875 -0.09375 C 4.242188 -0.675781 3.03125 -1.253906 2.28125 -1.828125 L 1.171875 -2.75 L 4.828125 -8.890625 C 5.097656 -8.660156 5.453125 -8.382812 5.890625 -8.0625 C 6.335938 -7.738281 7.132812 -7.296875 8.28125 -6.734375 C 9.4375 -6.171875 10.4375 -5.890625 11.28125 -5.890625 C 13.144531 -5.890625 14.078125 -6.519531 14.078125 -7.78125 C 14.078125 -8.351562 13.835938 -8.800781 13.359375 -9.125 C 12.890625 -9.445312 12.085938 -9.8125 10.953125 -10.21875 C 9.816406 -10.625 8.925781 -11 8.28125 -11.34375 C 6.65625 -12.1875 5.367188 -13.140625 4.421875 -14.203125 C 3.472656 -15.273438 3 -16.691406 3 -18.453125 C 3 -21.097656 4.023438 -23.15625 6.078125 -24.625 C 8.128906 -26.101562 10.898438 -26.84375 14.390625 -26.84375 Z M 14.390625 -26.84375 "/></g></g></g><g fill="#000000" fill-opacity="1"><g transform="translate(21.268117, 44.547006)"><g><path d="M 29.4375 -11.796875 L 10.53125 -11.796875 C 10.53125 -9.960938 11.117188 -8.601562 12.296875 -7.71875 C 13.484375 -6.84375 14.773438 -6.40625 16.171875 -6.40625 C 17.628906 -6.40625 18.78125 -6.597656 19.625 -6.984375 C 20.46875 -7.378906 21.4375 -8.148438 22.53125 -9.296875 L 29.03125 -6.046875 C 26.320312 -1.503906 21.8125 0.765625 15.5 0.765625 C 11.570312 0.765625 8.203125 -0.582031 5.390625 -3.28125 C 2.578125 -5.976562 1.171875 -9.222656 1.171875 -13.015625 C 1.171875 -16.804688 2.578125 -20.054688 5.390625 -22.765625 C 8.203125 -25.484375 11.570312 -26.84375 15.5 -26.84375 C 19.632812 -26.84375 23 -25.644531 25.59375 -23.25 C 28.1875 -20.863281 29.484375 -17.453125 29.484375 -13.015625 C 29.484375 -12.398438 29.46875 -11.992188 29.4375 -11.796875 Z M 10.78125 -16.78125 L 20.6875 -16.78125 C 20.488281 -18.132812 19.957031 -19.175781 19.09375 -19.90625 C 18.226562 -20.632812 17.117188 -21 15.765625 -21 C 14.273438 -21 13.085938 -20.609375 12.203125 -19.828125 C 11.316406 -19.046875 10.84375 -18.03125 10.78125 -16.78125 Z M 10.78125 -16.78125 "/></g></g></g><g fill="#000000" fill-opacity="1"><g transform="translate(47.141951, 44.547006)"><g><path d="M 3.046875 0 L 3.046875 -26.078125 L 12.046875 -26.078125 L 12.046875 -22.328125 L 12.15625 -22.328125 C 12.21875 -22.460938 12.320312 -22.628906 12.46875 -22.828125 C 12.625 -23.035156 12.957031 -23.390625 13.46875 -23.890625 C 13.976562 -24.398438 14.519531 -24.859375 15.09375 -25.265625 C 15.675781 -25.671875 16.421875 -26.035156 17.328125 -26.359375 C 18.242188 -26.679688 19.179688 -26.84375 20.140625 -26.84375 C 21.117188 -26.84375 22.082031 -26.707031 23.03125 -26.4375 C 23.976562 -26.164062 24.671875 -25.894531 25.109375 -25.625 L 25.828125 -25.21875 L 22.0625 -17.59375 C 20.945312 -18.539062 19.390625 -19.015625 17.390625 -19.015625 C 16.304688 -19.015625 15.375 -18.773438 14.59375 -18.296875 C 13.8125 -17.828125 13.257812 -17.253906 12.9375 -16.578125 C 12.613281 -15.898438 12.382812 -15.320312 12.25 -14.84375 C 12.113281 -14.375 12.046875 -14.003906 12.046875 -13.734375 L 12.046875 0 Z M 3.046875 0 "/></g></g></g><g fill="#000000" fill-opacity="1"><g transform="translate(67.678067, 44.547006)"><g><path d="M 9.65625 -26.078125 L 16.015625 -11.890625 L 22.375 -26.078125 L 33.046875 -26.078125 L 19.0625 0 L 12.96875 0 L -1.015625 -26.078125 Z M 9.65625 -26.078125 "/></g></g></g><g fill="#000000" fill-opacity="1"><g transform="translate(94.924454, 44.547006)"><g><path d="M 3.90625 -40.625 C 4.957031 -41.675781 6.210938 -42.203125 7.671875 -42.203125 C 9.128906 -42.203125 10.382812 -41.675781 11.4375 -40.625 C 12.488281 -39.570312 13.015625 -38.316406 13.015625 -36.859375 C 13.015625 -35.398438 12.488281 -34.144531 11.4375 -33.09375 C 10.382812 -32.039062 9.128906 -31.515625 7.671875 -31.515625 C 6.210938 -31.515625 4.957031 -32.039062 3.90625 -33.09375 C 2.863281 -34.144531 2.34375 -35.398438 2.34375 -36.859375 C 2.34375 -38.316406 2.863281 -39.570312 3.90625 -40.625 Z M 3.046875 -26.078125 L 3.046875 0 L 12.046875 0 L 12.046875 -26.078125 Z M 3.046875 -26.078125 "/></g></g></g><g fill="#000000" fill-opacity="1"><g transform="translate(105.496838, 44.547006)"><g><path d="M 16.9375 -19.46875 C 15.238281 -19.46875 13.78125 -18.835938 12.5625 -17.578125 C 11.34375 -16.328125 10.734375 -14.820312 10.734375 -13.0625 C 10.734375 -11.269531 11.34375 -9.742188 12.5625 -8.484375 C 13.78125 -7.234375 15.238281 -6.609375 16.9375 -6.609375 C 17.75 -6.609375 18.519531 -6.707031 19.25 -6.90625 C 19.976562 -7.113281 20.507812 -7.320312 20.84375 -7.53125 L 21.296875 -7.828125 L 24.359375 -1.578125 C 24.117188 -1.410156 23.785156 -1.195312 23.359375 -0.9375 C 22.941406 -0.6875 21.976562 -0.34375 20.46875 0.09375 C 18.957031 0.539062 17.335938 0.765625 15.609375 0.765625 C 11.773438 0.765625 8.410156 -0.582031 5.515625 -3.28125 C 2.617188 -5.976562 1.171875 -9.207031 1.171875 -12.96875 C 1.171875 -16.757812 2.617188 -20.019531 5.515625 -22.75 C 8.410156 -25.476562 11.773438 -26.84375 15.609375 -26.84375 C 17.335938 -26.84375 18.929688 -26.640625 20.390625 -26.234375 C 21.847656 -25.828125 22.878906 -25.421875 23.484375 -25.015625 L 24.359375 -24.40625 L 21.296875 -18.25 C 20.179688 -19.0625 18.726562 -19.46875 16.9375 -19.46875 Z M 16.9375 -19.46875 "/></g></g></g><g fill="#000000" fill-opacity="1"><g transform="translate(125.677112, 44.547006)"><g><path d="M 29.4375 -11.796875 L 10.53125 -11.796875 C 10.53125 -9.960938 11.117188 -8.601562 12.296875 -7.71875 C 13.484375 -6.84375 14.773438 -6.40625 16.171875 -6.40625 C 17.628906 -6.40625 18.78125 -6.597656 19.625 -6.984375 C 20.46875 -7.378906 21.4375 -8.148438 22.53125 -9.296875 L 29.03125 -6.046875 C 26.320312 -1.503906 21.8125 0.765625 15.5 0.765625 C 11.570312 0.765625 8.203125 -0.582031 5.390625 -3.28125 C 2.578125 -5.976562 1.171875 -9.222656 1.171875 -13.015625 C 1.171875 -16.804688 2.578125 -20.054688 5.390625 -22.765625 C 8.203125 -25.484375 11.570312 -26.84375 15.5 -26.84375 C 19.632812 -26.84375 23 -25.644531 25.59375 -23.25 C 28.1875 -20.863281 29.484375 -17.453125 29.484375 -13.015625 C 29.484375 -12.398438 29.46875 -11.992188 29.4375 -11.796875 Z M 10.78125 -16.78125 L 20.6875 -16.78125 C 20.488281 -18.132812 19.957031 -19.175781 19.09375 -19.90625 C 18.226562 -20.632812 17.117188 -21 15.765625 -21 C 14.273438 -21 13.085938 -20.609375 12.203125 -19.828125 C 11.316406 -19.046875 10.84375 -18.03125 10.78125 -16.78125 Z M 10.78125 -16.78125 "/></g></g></g><g fill="#000000" fill-opacity="1"><g transform="translate(151.55095, 44.547006)"><g/></g></g><g fill="#022179" fill-opacity="1"><g transform="translate(160.6408, 44.547006)"><g><path d="M 3.046875 0 L 3.046875 -26.078125 L 12.046875 -26.078125 L 12.046875 -22.328125 L 12.15625 -22.328125 C 12.21875 -22.460938 12.320312 -22.628906 12.46875 -22.828125 C 12.625 -23.035156 12.957031 -23.390625 13.46875 -23.890625 C 13.976562 -24.398438 14.519531 -24.859375 15.09375 -25.265625 C 15.675781 -25.671875 16.421875 -26.035156 17.328125 -26.359375 C 18.242188 -26.679688 19.179688 -26.84375 20.140625 -26.84375 C 21.117188 -26.84375 22.082031 -26.707031 23.03125 -26.4375 C 23.976562 -26.164062 24.671875 -25.894531 25.109375 -25.625 L 25.828125 -25.21875 L 22.0625 -17.59375 C 20.945312 -18.539062 19.390625 -19.015625 17.390625 -19.015625 C 16.304688 -19.015625 15.375 -18.773438 14.59375 -18.296875 C 13.8125 -17.828125 13.257812 -17.253906 12.9375 -16.578125 C 12.613281 -15.898438 12.382812 -15.320312 12.25 -14.84375 C 12.113281 -14.375 12.046875 -14.003906 12.046875 -13.734375 L 12.046875 0 Z M 3.046875 0 "/></g></g></g><g fill="#022179" fill-opacity="1"><g transform="translate(181.176916, 44.547006)"><g><path d="M 4.828125 -3.21875 C 2.390625 -5.882812 1.171875 -9.148438 1.171875 -13.015625 C 1.171875 -16.878906 2.390625 -20.148438 4.828125 -22.828125 C 7.265625 -25.503906 10.367188 -26.84375 14.140625 -26.84375 C 17.597656 -26.84375 20.441406 -25.757812 22.671875 -23.59375 L 22.671875 -26.078125 L 31.671875 -26.078125 L 31.671875 0 L 22.78125 0 L 22.78125 -2.953125 L 22.671875 -2.953125 C 20.441406 -0.472656 17.597656 0.765625 14.140625 0.765625 C 10.367188 0.765625 7.265625 -0.5625 4.828125 -3.21875 Z M 12.484375 -17.4375 C 11.316406 -16.28125 10.734375 -14.804688 10.734375 -13.015625 C 10.734375 -11.222656 11.289062 -9.757812 12.40625 -8.625 C 13.519531 -7.488281 14.992188 -6.921875 16.828125 -6.921875 C 18.585938 -6.921875 20.035156 -7.492188 21.171875 -8.640625 C 22.304688 -9.796875 22.875 -11.253906 22.875 -13.015625 C 22.875 -14.804688 22.289062 -16.28125 21.125 -17.4375 C 19.957031 -18.59375 18.523438 -19.171875 16.828125 -19.171875 C 15.097656 -19.171875 13.648438 -18.59375 12.484375 -17.4375 Z M 12.484375 -17.4375 "/></g></g></g><g fill="#022179" fill-opacity="1"><g transform="translate(211.117586, 44.547006)"><g><path d="M 4.578125 -26.078125 L 4.578125 -35.796875 L 13.578125 -35.796875 L 13.578125 -26.078125 L 19.0625 -26.078125 L 19.0625 -19.21875 L 13.578125 -19.21875 L 13.578125 -10.9375 C 13.578125 -8.53125 14.253906 -7.328125 15.609375 -7.328125 C 15.953125 -7.328125 16.304688 -7.394531 16.671875 -7.53125 C 17.046875 -7.664062 17.335938 -7.800781 17.546875 -7.9375 L 17.84375 -8.140625 L 20.078125 -0.859375 C 18.148438 0.222656 15.945312 0.765625 13.46875 0.765625 C 11.78125 0.765625 10.320312 0.46875 9.09375 -0.125 C 7.875 -0.71875 6.953125 -1.515625 6.328125 -2.515625 C 5.703125 -3.515625 5.253906 -4.566406 4.984375 -5.671875 C 4.710938 -6.773438 4.578125 -7.953125 4.578125 -9.203125 L 4.578125 -19.21875 L 0.8125 -19.21875 L 0.8125 -26.078125 Z M 4.578125 -26.078125 "/></g></g></g><g fill="#022179" fill-opacity="1"><g transform="translate(226.417648, 44.547006)"><g><path d="M 29.4375 -11.796875 L 10.53125 -11.796875 C 10.53125 -9.960938 11.117188 -8.601562 12.296875 -7.71875 C 13.484375 -6.84375 14.773438 -6.40625 16.171875 -6.40625 C 17.628906 -6.40625 18.78125 -6.597656 19.625 -6.984375 C 20.46875 -7.378906 21.4375 -8.148438 22.53125 -9.296875 L 29.03125 -6.046875 C 26.320312 -1.503906 21.8125 0.765625 15.5 0.765625 C 11.570312 0.765625 8.203125 -0.582031 5.390625 -3.28125 C 2.578125 -5.976562 1.171875 -9.222656 1.171875 -13.015625 C 1.171875 -16.804688 2.578125 -20.054688 5.390625 -22.765625 C 8.203125 -25.484375 11.570312 -26.84375 15.5 -26.84375 C 19.632812 -26.84375 23 -25.644531 25.59375 -23.25 C 28.1875 -20.863281 29.484375 -17.453125 29.484375 -13.015625 C 29.484375 -12.398438 29.46875 -11.992188 29.4375 -11.796875 Z M 10.78125 -16.78125 L 20.6875 -16.78125 C 20.488281 -18.132812 19.957031 -19.175781 19.09375 -19.90625 C 18.226562 -20.632812 17.117188 -21 15.765625 -21 C 14.273438 -21 13.085938 -20.609375 12.203125 -19.828125 C 11.316406 -19.046875 10.84375 -18.03125 10.78125 -16.78125 Z M 10.78125 -16.78125 "/></g></g></g><g fill="#000000" fill-opacity="1"><g transform="translate(20.849653, 58.35745)"><g><path d="M 5.0625 -3.96875 C 5.425781 -3.820312 5.722656 -3.601562 5.953125 -3.3125 C 6.179688 -3.019531 6.296875 -2.644531 6.296875 -2.1875 C 6.296875 -1.375 6.0625 -0.804688 5.59375 -0.484375 C 5.132812 -0.160156 4.582031 0 3.9375 0 L 1.390625 0 C 1.210938 0 1.0625 -0.0546875 0.9375 -0.171875 C 0.820312 -0.296875 0.765625 -0.445312 0.765625 -0.625 L 0.765625 -6.546875 C 0.765625 -6.722656 0.820312 -6.867188 0.9375 -6.984375 C 1.0625 -7.097656 1.210938 -7.15625 1.390625 -7.15625 L 3.96875 -7.15625 C 5.269531 -7.15625 5.921875 -6.550781 5.921875 -5.34375 C 5.921875 -5.03125 5.84375 -4.753906 5.6875 -4.515625 C 5.539062 -4.285156 5.332031 -4.101562 5.0625 -3.96875 Z M 4.578125 -5.109375 C 4.578125 -5.390625 4.507812 -5.597656 4.375 -5.734375 C 4.238281 -5.878906 4.039062 -5.953125 3.78125 -5.953125 L 2.09375 -5.953125 L 2.09375 -4.359375 L 3.8125 -4.359375 C 4.019531 -4.359375 4.195312 -4.425781 4.34375 -4.5625 C 4.5 -4.695312 4.578125 -4.878906 4.578125 -5.109375 Z M 3.9375 -1.171875 C 4.257812 -1.171875 4.507812 -1.253906 4.6875 -1.421875 C 4.875 -1.597656 4.96875 -1.851562 4.96875 -2.1875 C 4.96875 -2.582031 4.859375 -2.84375 4.640625 -2.96875 C 4.429688 -3.09375 4.175781 -3.15625 3.875 -3.15625 L 2.09375 -3.15625 L 2.09375 -1.171875 Z M 3.9375 -1.171875 "/></g></g></g><g fill="#000000" fill-opacity="1"><g transform="translate(29.308921, 58.35745)"><g><path d="M 3.515625 -5.578125 C 3.710938 -5.578125 3.878906 -5.519531 4.015625 -5.40625 C 4.160156 -5.289062 4.234375 -5.15625 4.234375 -5 C 4.234375 -4.78125 4.175781 -4.617188 4.0625 -4.515625 C 3.957031 -4.410156 3.832031 -4.359375 3.6875 -4.359375 C 3.582031 -4.359375 3.46875 -4.382812 3.34375 -4.4375 C 3.320312 -4.4375 3.273438 -4.445312 3.203125 -4.46875 C 3.128906 -4.488281 3.050781 -4.5 2.96875 -4.5 C 2.789062 -4.5 2.617188 -4.441406 2.453125 -4.328125 C 2.285156 -4.222656 2.148438 -4.0625 2.046875 -3.84375 C 1.941406 -3.625 1.890625 -3.359375 1.890625 -3.046875 L 1.890625 -0.625 C 1.890625 -0.445312 1.832031 -0.296875 1.71875 -0.171875 C 1.601562 -0.0546875 1.457031 0 1.28125 0 C 1.101562 0 0.957031 -0.0546875 0.84375 -0.171875 C 0.726562 -0.296875 0.671875 -0.445312 0.671875 -0.625 L 0.671875 -4.84375 C 0.671875 -5.019531 0.726562 -5.164062 0.84375 -5.28125 C 0.957031 -5.40625 1.101562 -5.46875 1.28125 -5.46875 C 1.457031 -5.46875 1.601562 -5.40625 1.71875 -5.28125 C 1.832031 -5.164062 1.890625 -5.019531 1.890625 -4.84375 L 1.890625 -4.71875 C 2.046875 -5 2.269531 -5.210938 2.5625 -5.359375 C 2.863281 -5.503906 3.179688 -5.578125 3.515625 -5.578125 Z M 3.515625 -5.578125 "/></g></g></g><g fill="#000000" fill-opacity="1"><g transform="translate(35.507907, 58.35745)"><g><path d="M 1.828125 -0.625 C 1.828125 -0.445312 1.765625 -0.296875 1.640625 -0.171875 C 1.523438 -0.0546875 1.378906 0 1.203125 0 C 1.023438 0 0.878906 -0.0546875 0.765625 -0.171875 C 0.648438 -0.296875 0.59375 -0.445312 0.59375 -0.625 L 0.59375 -4.84375 C 0.59375 -5.019531 0.648438 -5.164062 0.765625 -5.28125 C 0.878906 -5.40625 1.023438 -5.46875 1.203125 -5.46875 C 1.378906 -5.46875 1.523438 -5.40625 1.640625 -5.28125 C 1.765625 -5.164062 1.828125 -5.019531 1.828125 -4.84375 Z M 1.1875 -6.140625 C 0.957031 -6.140625 0.796875 -6.175781 0.703125 -6.25 C 0.609375 -6.320312 0.5625 -6.457031 0.5625 -6.65625 L 0.5625 -6.84375 C 0.5625 -7.039062 0.609375 -7.175781 0.703125 -7.25 C 0.804688 -7.320312 0.972656 -7.359375 1.203125 -7.359375 C 1.441406 -7.359375 1.609375 -7.320312 1.703125 -7.25 C 1.796875 -7.175781 1.84375 -7.039062 1.84375 -6.84375 L 1.84375 -6.65625 C 1.84375 -6.457031 1.789062 -6.320312 1.6875 -6.25 C 1.59375 -6.175781 1.425781 -6.140625 1.1875 -6.140625 Z M 1.1875 -6.140625 "/></g></g></g><g fill="#000000" fill-opacity="1"><g transform="translate(39.681832, 58.35745)"><g><path d="M 5.09375 -7.578125 C 5.269531 -7.578125 5.414062 -7.515625 5.53125 -7.390625 C 5.644531 -7.273438 5.703125 -7.128906 5.703125 -6.953125 L 5.703125 -0.625 C 5.703125 -0.445312 5.644531 -0.296875 5.53125 -0.171875 C 5.414062 -0.0546875 5.269531 0 5.09375 0 C 4.914062 0 4.769531 -0.0546875 4.65625 -0.171875 C 4.550781 -0.285156 4.492188 -0.429688 4.484375 -0.609375 C 4.316406 -0.410156 4.085938 -0.238281 3.796875 -0.09375 C 3.503906 0.0390625 3.195312 0.109375 2.875 0.109375 C 2.40625 0.109375 1.976562 -0.0078125 1.59375 -0.25 C 1.207031 -0.5 0.90625 -0.835938 0.6875 -1.265625 C 0.46875 -1.691406 0.359375 -2.179688 0.359375 -2.734375 C 0.359375 -3.273438 0.46875 -3.757812 0.6875 -4.1875 C 0.90625 -4.625 1.203125 -4.960938 1.578125 -5.203125 C 1.960938 -5.453125 2.378906 -5.578125 2.828125 -5.578125 C 3.160156 -5.578125 3.46875 -5.515625 3.75 -5.390625 C 4.039062 -5.273438 4.285156 -5.125 4.484375 -4.9375 L 4.484375 -6.953125 C 4.484375 -7.128906 4.539062 -7.273438 4.65625 -7.390625 C 4.769531 -7.515625 4.914062 -7.578125 5.09375 -7.578125 Z M 3.03125 -1.015625 C 3.46875 -1.015625 3.828125 -1.175781 4.109375 -1.5 C 4.390625 -1.832031 4.53125 -2.242188 4.53125 -2.734375 C 4.53125 -3.222656 4.390625 -3.628906 4.109375 -3.953125 C 3.828125 -4.285156 3.46875 -4.453125 3.03125 -4.453125 C 2.59375 -4.453125 2.234375 -4.285156 1.953125 -3.953125 C 1.671875 -3.628906 1.53125 -3.222656 1.53125 -2.734375 C 1.53125 -2.242188 1.664062 -1.832031 1.9375 -1.5 C 2.21875 -1.175781 2.582031 -1.015625 3.03125 -1.015625 Z M 3.03125 -1.015625 "/></g></g></g><g fill="#000000" fill-opacity="1"><g transform="translate(47.813817, 58.35745)"><g><path d="M 5.203125 -5.578125 C 5.378906 -5.578125 5.523438 -5.519531 5.640625 -5.40625 C 5.753906 -5.289062 5.8125 -5.140625 5.8125 -4.953125 L 5.8125 -0.40625 C 5.8125 0.425781 5.550781 1.039062 5.03125 1.4375 C 4.519531 1.84375 3.867188 2.046875 3.078125 2.046875 C 2.878906 2.046875 2.597656 2.007812 2.234375 1.9375 C 1.878906 1.875 1.625 1.804688 1.46875 1.734375 C 1.132812 1.597656 0.96875 1.398438 0.96875 1.140625 C 0.96875 1.097656 0.976562 1.046875 1 0.984375 C 1.039062 0.828125 1.109375 0.707031 1.203125 0.625 C 1.304688 0.550781 1.414062 0.515625 1.53125 0.515625 C 1.601562 0.515625 1.671875 0.523438 1.734375 0.546875 C 1.753906 0.554688 1.921875 0.617188 2.234375 0.734375 C 2.546875 0.859375 2.828125 0.921875 3.078125 0.921875 C 3.585938 0.921875 3.960938 0.816406 4.203125 0.609375 C 4.453125 0.410156 4.578125 0.128906 4.578125 -0.234375 L 4.578125 -0.734375 C 4.429688 -0.515625 4.207031 -0.316406 3.90625 -0.140625 C 3.601562 0.0234375 3.273438 0.109375 2.921875 0.109375 C 2.441406 0.109375 2.003906 -0.0078125 1.609375 -0.25 C 1.222656 -0.5 0.914062 -0.835938 0.6875 -1.265625 C 0.46875 -1.691406 0.359375 -2.179688 0.359375 -2.734375 C 0.359375 -3.273438 0.46875 -3.757812 0.6875 -4.1875 C 0.90625 -4.625 1.207031 -4.960938 1.59375 -5.203125 C 1.988281 -5.453125 2.421875 -5.578125 2.890625 -5.578125 C 3.234375 -5.578125 3.554688 -5.503906 3.859375 -5.359375 C 4.160156 -5.210938 4.398438 -5.039062 4.578125 -4.84375 L 4.578125 -4.953125 C 4.578125 -5.128906 4.632812 -5.273438 4.75 -5.390625 C 4.875 -5.515625 5.023438 -5.578125 5.203125 -5.578125 Z M 3.078125 -1.015625 C 3.535156 -1.015625 3.910156 -1.175781 4.203125 -1.5 C 4.492188 -1.832031 4.640625 -2.242188 4.640625 -2.734375 C 4.640625 -3.222656 4.492188 -3.628906 4.203125 -3.953125 C 3.910156 -4.285156 3.535156 -4.453125 3.078125 -4.453125 C 2.617188 -4.453125 2.242188 -4.285156 1.953125 -3.953125 C 1.671875 -3.628906 1.53125 -3.222656 1.53125 -2.734375 C 1.53125 -2.242188 1.671875 -1.832031 1.953125 -1.5 C 2.242188 -1.175781 2.617188 -1.015625 3.078125 -1.015625 Z M 3.078125 -1.015625 "/></g></g></g><g fill="#000000" fill-opacity="1"><g transform="translate(56.048079, 58.35745)"><g><path d="M 1.828125 -0.625 C 1.828125 -0.445312 1.765625 -0.296875 1.640625 -0.171875 C 1.523438 -0.0546875 1.378906 0 1.203125 0 C 1.023438 0 0.878906 -0.0546875 0.765625 -0.171875 C 0.648438 -0.296875 0.59375 -0.445312 0.59375 -0.625 L 0.59375 -4.84375 C 0.59375 -5.019531 0.648438 -5.164062 0.765625 -5.28125 C 0.878906 -5.40625 1.023438 -5.46875 1.203125 -5.46875 C 1.378906 -5.46875 1.523438 -5.40625 1.640625 -5.28125 C 1.765625 -5.164062 1.828125 -5.019531 1.828125 -4.84375 Z M 1.1875 -6.140625 C 0.957031 -6.140625 0.796875 -6.175781 0.703125 -6.25 C 0.609375 -6.320312 0.5625 -6.457031 0.5625 -6.65625 L 0.5625 -6.84375 C 0.5625 -7.039062 0.609375 -7.175781 0.703125 -7.25 C 0.804688 -7.320312 0.972656 -7.359375 1.203125 -7.359375 C 1.441406 -7.359375 1.609375 -7.320312 1.703125 -7.25 C 1.796875 -7.175781 1.84375 -7.039062 1.84375 -6.84375 L 1.84375 -6.65625 C 1.84375 -6.457031 1.789062 -6.320312 1.6875 -6.25 C 1.59375 -6.175781 1.425781 -6.140625 1.1875 -6.140625 Z M 1.1875 -6.140625 "/></g></g></g><g fill="#000000" fill-opacity="1"><g transform="translate(60.222004, 58.35745)"><g><path d="M 3.59375 -5.578125 C 4.289062 -5.578125 4.769531 -5.367188 5.03125 -4.953125 C 5.300781 -4.546875 5.4375 -3.976562 5.4375 -3.25 L 5.4375 -0.625 C 5.4375 -0.445312 5.378906 -0.296875 5.265625 -0.171875 C 5.148438 -0.0546875 5.003906 0 4.828125 0 C 4.640625 0 4.488281 -0.0546875 4.375 -0.171875 C 4.257812 -0.296875 4.203125 -0.445312 4.203125 -0.625 L 4.203125 -3.25 C 4.203125 -3.625 4.125 -3.914062 3.96875 -4.125 C 3.8125 -4.34375 3.539062 -4.453125 3.15625 -4.453125 C 2.757812 -4.453125 2.445312 -4.335938 2.21875 -4.109375 C 2 -3.878906 1.890625 -3.59375 1.890625 -3.25 L 1.890625 -0.625 C 1.890625 -0.445312 1.832031 -0.296875 1.71875 -0.171875 C 1.601562 -0.0546875 1.457031 0 1.28125 0 C 1.101562 0 0.957031 -0.0546875 0.84375 -0.171875 C 0.726562 -0.296875 0.671875 -0.445312 0.671875 -0.625 L 0.671875 -4.84375 C 0.671875 -5.019531 0.726562 -5.164062 0.84375 -5.28125 C 0.957031 -5.40625 1.101562 -5.46875 1.28125 -5.46875 C 1.457031 -5.46875 1.601562 -5.40625 1.71875 -5.28125 C 1.832031 -5.164062 1.890625 -5.019531 1.890625 -4.84375 L 1.890625 -4.671875 C 2.078125 -4.921875 2.316406 -5.132812 2.609375 -5.3125 C 2.910156 -5.488281 3.238281 -5.578125 3.59375 -5.578125 Z M 3.59375 -5.578125 "/></g></g></g><g fill="#000000" fill-opacity="1"><g transform="translate(68.077852, 58.35745)"><g><path d="M 5.203125 -5.578125 C 5.378906 -5.578125 5.523438 -5.519531 5.640625 -5.40625 C 5.753906 -5.289062 5.8125 -5.140625 5.8125 -4.953125 L 5.8125 -0.40625 C 5.8125 0.425781 5.550781 1.039062 5.03125 1.4375 C 4.519531 1.84375 3.867188 2.046875 3.078125 2.046875 C 2.878906 2.046875 2.597656 2.007812 2.234375 1.9375 C 1.878906 1.875 1.625 1.804688 1.46875 1.734375 C 1.132812 1.597656 0.96875 1.398438 0.96875 1.140625 C 0.96875 1.097656 0.976562 1.046875 1 0.984375 C 1.039062 0.828125 1.109375 0.707031 1.203125 0.625 C 1.304688 0.550781 1.414062 0.515625 1.53125 0.515625 C 1.601562 0.515625 1.671875 0.523438 1.734375 0.546875 C 1.753906 0.554688 1.921875 0.617188 2.234375 0.734375 C 2.546875 0.859375 2.828125 0.921875 3.078125 0.921875 C 3.585938 0.921875 3.960938 0.816406 4.203125 0.609375 C 4.453125 0.410156 4.578125 0.128906 4.578125 -0.234375 L 4.578125 -0.734375 C 4.429688 -0.515625 4.207031 -0.316406 3.90625 -0.140625 C 3.601562 0.0234375 3.273438 0.109375 2.921875 0.109375 C 2.441406 0.109375 2.003906 -0.0078125 1.609375 -0.25 C 1.222656 -0.5 0.914062 -0.835938 0.6875 -1.265625 C 0.46875 -1.691406 0.359375 -2.179688 0.359375 -2.734375 C 0.359375 -3.273438 0.46875 -3.757812 0.6875 -4.1875 C 0.90625 -4.625 1.207031 -4.960938 1.59375 -5.203125 C 1.988281 -5.453125 2.421875 -5.578125 2.890625 -5.578125 C 3.234375 -5.578125 3.554688 -5.503906 3.859375 -5.359375 C 4.160156 -5.210938 4.398438 -5.039062 4.578125 -4.84375 L 4.578125 -4.953125 C 4.578125 -5.128906 4.632812 -5.273438 4.75 -5.390625 C 4.875 -5.515625 5.023438 -5.578125 5.203125 -5.578125 Z M 3.078125 -1.015625 C 3.535156 -1.015625 3.910156 -1.175781 4.203125 -1.5 C 4.492188 -1.832031 4.640625 -2.242188 4.640625 -2.734375 C 4.640625 -3.222656 4.492188 -3.628906 4.203125 -3.953125 C 3.910156 -4.285156 3.535156 -4.453125 3.078125 -4.453125 C 2.617188 -4.453125 2.242188 -4.285156 1.953125 -3.953125 C 1.671875 -3.628906 1.53125 -3.222656 1.53125 -2.734375 C 1.53125 -2.242188 1.671875 -1.832031 1.953125 -1.5 C 2.242188 -1.175781 2.617188 -1.015625 3.078125 -1.015625 Z M 3.078125 -1.015625 "/></g></g></g><g fill="#000000" fill-opacity="1"><g transform="translate(76.312114, 58.35745)"><g/></g></g><g fill="#000000" fill-opacity="1"><g transform="translate(80.93605, 58.35745)"><g><path d="M 5.46875 -7.15625 C 5.65625 -7.15625 5.804688 -7.101562 5.921875 -7 C 6.035156 -6.894531 6.09375 -6.753906 6.09375 -6.578125 C 6.09375 -6.390625 6.035156 -6.242188 5.921875 -6.140625 C 5.804688 -6.035156 5.65625 -5.984375 5.46875 -5.984375 L 3.875 -5.984375 L 3.875 -0.625 C 3.875 -0.445312 3.804688 -0.296875 3.671875 -0.171875 C 3.546875 -0.0546875 3.382812 0 3.1875 0 C 3 0 2.84375 -0.0546875 2.71875 -0.171875 C 2.59375 -0.296875 2.53125 -0.445312 2.53125 -0.625 L 2.53125 -5.984375 L 0.9375 -5.984375 C 0.75 -5.984375 0.597656 -6.035156 0.484375 -6.140625 C 0.367188 -6.253906 0.3125 -6.398438 0.3125 -6.578125 C 0.3125 -6.753906 0.367188 -6.894531 0.484375 -7 C 0.609375 -7.101562 0.757812 -7.15625 0.9375 -7.15625 Z M 5.46875 -7.15625 "/></g></g></g><g fill="#000000" fill-opacity="1"><g transform="translate(89.098727, 58.35745)"><g><path d="M 3.515625 -5.578125 C 3.710938 -5.578125 3.878906 -5.519531 4.015625 -5.40625 C 4.160156 -5.289062 4.234375 -5.15625 4.234375 -5 C 4.234375 -4.78125 4.175781 -4.617188 4.0625 -4.515625 C 3.957031 -4.410156 3.832031 -4.359375 3.6875 -4.359375 C 3.582031 -4.359375 3.46875 -4.382812 3.34375 -4.4375 C 3.320312 -4.4375 3.273438 -4.445312 3.203125 -4.46875 C 3.128906 -4.488281 3.050781 -4.5 2.96875 -4.5 C 2.789062 -4.5 2.617188 -4.441406 2.453125 -4.328125 C 2.285156 -4.222656 2.148438 -4.0625 2.046875 -3.84375 C 1.941406 -3.625 1.890625 -3.359375 1.890625 -3.046875 L 1.890625 -0.625 C 1.890625 -0.445312 1.832031 -0.296875 1.71875 -0.171875 C 1.601562 -0.0546875 1.457031 0 1.28125 0 C 1.101562 0 0.957031 -0.0546875 0.84375 -0.171875 C 0.726562 -0.296875 0.671875 -0.445312 0.671875 -0.625 L 0.671875 -4.84375 C 0.671875 -5.019531 0.726562 -5.164062 0.84375 -5.28125 C 0.957031 -5.40625 1.101562 -5.46875 1.28125 -5.46875 C 1.457031 -5.46875 1.601562 -5.40625 1.71875 -5.28125 C 1.832031 -5.164062 1.890625 -5.019531 1.890625 -4.84375 L 1.890625 -4.71875 C 2.046875 -5 2.269531 -5.210938 2.5625 -5.359375 C 2.863281 -5.503906 3.179688 -5.578125 3.515625 -5.578125 Z M 3.515625 -5.578125 "/></g></g></g><g fill="#000000" fill-opacity="1"><g transform="translate(95.297713, 58.35745)"><g><path d="M 4.734375 -5.46875 C 4.910156 -5.46875 5.054688 -5.40625 5.171875 -5.28125 C 5.285156 -5.164062 5.34375 -5.019531 5.34375 -4.84375 L 5.34375 -2.25 C 5.34375 -1.507812 5.140625 -0.929688 4.734375 -0.515625 C 4.328125 -0.0976562 3.75 0.109375 3 0.109375 C 2.25 0.109375 1.671875 -0.0976562 1.265625 -0.515625 C 0.867188 -0.929688 0.671875 -1.507812 0.671875 -2.25 L 0.671875 -4.84375 C 0.671875 -5.019531 0.726562 -5.164062 0.84375 -5.28125 C 0.957031 -5.40625 1.101562 -5.46875 1.28125 -5.46875 C 1.457031 -5.46875 1.601562 -5.40625 1.71875 -5.28125 C 1.832031 -5.164062 1.890625 -5.019531 1.890625 -4.84375 L 1.890625 -2.25 C 1.890625 -1.832031 1.984375 -1.519531 2.171875 -1.3125 C 2.359375 -1.113281 2.632812 -1.015625 3 -1.015625 C 3.375 -1.015625 3.648438 -1.113281 3.828125 -1.3125 C 4.015625 -1.519531 4.109375 -1.832031 4.109375 -2.25 L 4.109375 -4.84375 C 4.109375 -5.019531 4.164062 -5.164062 4.28125 -5.28125 C 4.40625 -5.40625 4.554688 -5.46875 4.734375 -5.46875 Z M 4.734375 -5.46875 "/></g></g></g><g fill="#000000" fill-opacity="1"><g transform="translate(103.061511, 58.35745)"><g><path d="M 0.34375 -0.84375 C 0.28125 -0.925781 0.25 -1.03125 0.25 -1.15625 C 0.25 -1.332031 0.335938 -1.484375 0.515625 -1.609375 C 0.617188 -1.671875 0.71875 -1.703125 0.8125 -1.703125 C 0.957031 -1.703125 1.097656 -1.632812 1.234375 -1.5 C 1.429688 -1.289062 1.640625 -1.132812 1.859375 -1.03125 C 2.085938 -0.925781 2.359375 -0.875 2.671875 -0.875 C 3.203125 -0.894531 3.46875 -1.097656 3.46875 -1.484375 C 3.46875 -1.679688 3.375 -1.832031 3.1875 -1.9375 C 3.007812 -2.039062 2.734375 -2.140625 2.359375 -2.234375 C 1.960938 -2.347656 1.640625 -2.457031 1.390625 -2.5625 C 1.140625 -2.675781 0.921875 -2.84375 0.734375 -3.0625 C 0.554688 -3.28125 0.46875 -3.578125 0.46875 -3.953125 C 0.46875 -4.285156 0.5625 -4.570312 0.75 -4.8125 C 0.9375 -5.050781 1.179688 -5.238281 1.484375 -5.375 C 1.785156 -5.507812 2.109375 -5.578125 2.453125 -5.578125 C 2.804688 -5.578125 3.15625 -5.507812 3.5 -5.375 C 3.84375 -5.25 4.113281 -5.0625 4.3125 -4.8125 C 4.40625 -4.695312 4.453125 -4.570312 4.453125 -4.4375 C 4.453125 -4.28125 4.382812 -4.148438 4.25 -4.046875 C 4.15625 -3.972656 4.050781 -3.9375 3.9375 -3.9375 C 3.78125 -3.9375 3.65625 -3.984375 3.5625 -4.078125 C 3.4375 -4.234375 3.273438 -4.351562 3.078125 -4.4375 C 2.890625 -4.53125 2.671875 -4.578125 2.421875 -4.578125 C 1.898438 -4.578125 1.640625 -4.390625 1.640625 -4.015625 C 1.640625 -3.859375 1.6875 -3.734375 1.78125 -3.640625 C 1.882812 -3.554688 2.007812 -3.488281 2.15625 -3.4375 C 2.300781 -3.382812 2.507812 -3.320312 2.78125 -3.25 C 3.144531 -3.144531 3.445312 -3.035156 3.6875 -2.921875 C 3.9375 -2.816406 4.144531 -2.648438 4.3125 -2.421875 C 4.488281 -2.203125 4.578125 -1.90625 4.578125 -1.53125 C 4.578125 -1.195312 4.476562 -0.90625 4.28125 -0.65625 C 4.082031 -0.40625 3.828125 -0.210938 3.515625 -0.078125 C 3.203125 0.046875 2.882812 0.109375 2.5625 0.109375 C 2.113281 0.109375 1.691406 0.0351562 1.296875 -0.109375 C 0.910156 -0.265625 0.59375 -0.507812 0.34375 -0.84375 Z M 0.34375 -0.84375 "/></g></g></g><g fill="#000000" fill-opacity="1"><g transform="translate(109.751414, 58.35745)"><g><path d="M 3.3125 -1.15625 C 3.40625 -1.15625 3.488281 -1.109375 3.5625 -1.015625 C 3.644531 -0.921875 3.6875 -0.800781 3.6875 -0.65625 C 3.6875 -0.46875 3.582031 -0.3125 3.375 -0.1875 C 3.175781 -0.0625 2.953125 0 2.703125 0 C 2.273438 0 1.914062 -0.0859375 1.625 -0.265625 C 1.34375 -0.453125 1.203125 -0.835938 1.203125 -1.421875 L 1.203125 -4.25 L 0.734375 -4.25 C 0.566406 -4.25 0.425781 -4.300781 0.3125 -4.40625 C 0.207031 -4.519531 0.15625 -4.660156 0.15625 -4.828125 C 0.15625 -4.984375 0.207031 -5.113281 0.3125 -5.21875 C 0.425781 -5.320312 0.566406 -5.375 0.734375 -5.375 L 1.203125 -5.375 L 1.203125 -6.03125 C 1.203125 -6.207031 1.257812 -6.351562 1.375 -6.46875 C 1.5 -6.59375 1.648438 -6.65625 1.828125 -6.65625 C 1.992188 -6.65625 2.132812 -6.59375 2.25 -6.46875 C 2.363281 -6.351562 2.421875 -6.207031 2.421875 -6.03125 L 2.421875 -5.375 L 3.15625 -5.375 C 3.3125 -5.375 3.441406 -5.316406 3.546875 -5.203125 C 3.660156 -5.097656 3.71875 -4.960938 3.71875 -4.796875 C 3.71875 -4.640625 3.660156 -4.507812 3.546875 -4.40625 C 3.441406 -4.300781 3.3125 -4.25 3.15625 -4.25 L 2.421875 -4.25 L 2.421875 -1.46875 C 2.421875 -1.332031 2.457031 -1.226562 2.53125 -1.15625 C 2.613281 -1.09375 2.71875 -1.0625 2.84375 -1.0625 C 2.894531 -1.0625 2.96875 -1.078125 3.0625 -1.109375 C 3.144531 -1.140625 3.226562 -1.15625 3.3125 -1.15625 Z M 3.3125 -1.15625 "/></g></g></g><g fill="#000000" fill-opacity="1"><g transform="translate(115.694703, 58.35745)"><g/></g></g><g fill="#000000" fill-opacity="1"><g transform="translate(120.318634, 58.35745)"><g><path d="M 6.96875 -5.46875 C 7.132812 -5.46875 7.269531 -5.40625 7.375 -5.28125 C 7.488281 -5.164062 7.546875 -5.019531 7.546875 -4.84375 C 7.546875 -4.78125 7.535156 -4.703125 7.515625 -4.609375 L 5.953125 -0.390625 C 5.910156 -0.265625 5.832031 -0.164062 5.71875 -0.09375 C 5.613281 -0.0195312 5.503906 0.015625 5.390625 0.015625 L 5.296875 0 C 5.066406 -0.0078125 4.894531 -0.140625 4.78125 -0.390625 L 3.90625 -2.90625 L 3.078125 -0.390625 C 2.960938 -0.140625 2.789062 -0.0078125 2.5625 0 L 2.484375 0.015625 C 2.359375 0.015625 2.238281 -0.0195312 2.125 -0.09375 C 2.019531 -0.164062 1.945312 -0.265625 1.90625 -0.390625 L 0.34375 -4.609375 C 0.320312 -4.679688 0.3125 -4.757812 0.3125 -4.84375 C 0.3125 -5.007812 0.363281 -5.15625 0.46875 -5.28125 C 0.582031 -5.40625 0.734375 -5.46875 0.921875 -5.46875 C 1.054688 -5.46875 1.171875 -5.4375 1.265625 -5.375 C 1.367188 -5.3125 1.441406 -5.21875 1.484375 -5.09375 L 2.59375 -2.09375 L 3.390625 -4.28125 C 3.503906 -4.53125 3.691406 -4.65625 3.953125 -4.65625 C 4.097656 -4.65625 4.207031 -4.625 4.28125 -4.5625 C 4.363281 -4.5 4.4375 -4.40625 4.5 -4.28125 L 5.28125 -2.140625 L 6.375 -5.09375 C 6.414062 -5.21875 6.488281 -5.3125 6.59375 -5.375 C 6.695312 -5.4375 6.820312 -5.46875 6.96875 -5.46875 Z M 6.96875 -5.46875 "/></g></g></g><g fill="#000000" fill-opacity="1"><g transform="translate(129.933625, 58.35745)"><g><path d="M 1.828125 -0.625 C 1.828125 -0.445312 1.765625 -0.296875 1.640625 -0.171875 C 1.523438 -0.0546875 1.378906 0 1.203125 0 C 1.023438 0 0.878906 -0.0546875 0.765625 -0.171875 C 0.648438 -0.296875 0.59375 -0.445312 0.59375 -0.625 L 0.59375 -4.84375 C 0.59375 -5.019531 0.648438 -5.164062 0.765625 -5.28125 C 0.878906 -5.40625 1.023438 -5.46875 1.203125 -5.46875 C 1.378906 -5.46875 1.523438 -5.40625 1.640625 -5.28125 C 1.765625 -5.164062 1.828125 -5.019531 1.828125 -4.84375 Z M 1.1875 -6.140625 C 0.957031 -6.140625 0.796875 -6.175781 0.703125 -6.25 C 0.609375 -6.320312 0.5625 -6.457031 0.5625 -6.65625 L 0.5625 -6.84375 C 0.5625 -7.039062 0.609375 -7.175781 0.703125 -7.25 C 0.804688 -7.320312 0.972656 -7.359375 1.203125 -7.359375 C 1.441406 -7.359375 1.609375 -7.320312 1.703125 -7.25 C 1.796875 -7.175781 1.84375 -7.039062 1.84375 -6.84375 L 1.84375 -6.65625 C 1.84375 -6.457031 1.789062 -6.320312 1.6875 -6.25 C 1.59375 -6.175781 1.425781 -6.140625 1.1875 -6.140625 Z M 1.1875 -6.140625 "/></g></g></g><g fill="#000000" fill-opacity="1"><g transform="translate(134.107556, 58.35745)"><g><path d="M 3.3125 -1.15625 C 3.40625 -1.15625 3.488281 -1.109375 3.5625 -1.015625 C 3.644531 -0.921875 3.6875 -0.800781 3.6875 -0.65625 C 3.6875 -0.46875 3.582031 -0.3125 3.375 -0.1875 C 3.175781 -0.0625 2.953125 0 2.703125 0 C 2.273438 0 1.914062 -0.0859375 1.625 -0.265625 C 1.34375 -0.453125 1.203125 -0.835938 1.203125 -1.421875 L 1.203125 -4.25 L 0.734375 -4.25 C 0.566406 -4.25 0.425781 -4.300781 0.3125 -4.40625 C 0.207031 -4.519531 0.15625 -4.660156 0.15625 -4.828125 C 0.15625 -4.984375 0.207031 -5.113281 0.3125 -5.21875 C 0.425781 -5.320312 0.566406 -5.375 0.734375 -5.375 L 1.203125 -5.375 L 1.203125 -6.03125 C 1.203125 -6.207031 1.257812 -6.351562 1.375 -6.46875 C 1.5 -6.59375 1.648438 -6.65625 1.828125 -6.65625 C 1.992188 -6.65625 2.132812 -6.59375 2.25 -6.46875 C 2.363281 -6.351562 2.421875 -6.207031 2.421875 -6.03125 L 2.421875 -5.375 L 3.15625 -5.375 C 3.3125 -5.375 3.441406 -5.316406 3.546875 -5.203125 C 3.660156 -5.097656 3.71875 -4.960938 3.71875 -4.796875 C 3.71875 -4.640625 3.660156 -4.507812 3.546875 -4.40625 C 3.441406 -4.300781 3.3125 -4.25 3.15625 -4.25 L 2.421875 -4.25 L 2.421875 -1.46875 C 2.421875 -1.332031 2.457031 -1.226562 2.53125 -1.15625 C 2.613281 -1.09375 2.71875 -1.0625 2.84375 -1.0625 C 2.894531 -1.0625 2.96875 -1.078125 3.0625 -1.109375 C 3.144531 -1.140625 3.226562 -1.15625 3.3125 -1.15625 Z M 3.3125 -1.15625 "/></g></g></g><g fill="#000000" fill-opacity="1"><g transform="translate(140.050851, 58.35745)"><g><path d="M 3.546875 -5.578125 C 4.210938 -5.578125 4.675781 -5.367188 4.9375 -4.953125 C 5.195312 -4.546875 5.328125 -3.976562 5.328125 -3.25 L 5.328125 -0.625 C 5.328125 -0.445312 5.269531 -0.296875 5.15625 -0.171875 C 5.039062 -0.0546875 4.894531 0 4.71875 0 C 4.539062 0 4.394531 -0.0546875 4.28125 -0.171875 C 4.164062 -0.296875 4.109375 -0.445312 4.109375 -0.625 L 4.109375 -3.25 C 4.109375 -3.625 4.03125 -3.914062 3.875 -4.125 C 3.726562 -4.34375 3.472656 -4.453125 3.109375 -4.453125 C 2.722656 -4.453125 2.421875 -4.335938 2.203125 -4.109375 C 1.992188 -3.878906 1.890625 -3.59375 1.890625 -3.25 L 1.890625 -0.625 C 1.890625 -0.445312 1.832031 -0.296875 1.71875 -0.171875 C 1.601562 -0.0546875 1.457031 0 1.28125 0 C 1.101562 0 0.957031 -0.0546875 0.84375 -0.171875 C 0.726562 -0.296875 0.671875 -0.445312 0.671875 -0.625 L 0.671875 -6.953125 C 0.671875 -7.128906 0.726562 -7.273438 0.84375 -7.390625 C 0.957031 -7.515625 1.101562 -7.578125 1.28125 -7.578125 C 1.457031 -7.578125 1.601562 -7.515625 1.71875 -7.390625 C 1.832031 -7.273438 1.890625 -7.128906 1.890625 -6.953125 L 1.890625 -4.6875 C 2.078125 -4.9375 2.3125 -5.144531 2.59375 -5.3125 C 2.875 -5.488281 3.191406 -5.578125 3.546875 -5.578125 Z M 3.546875 -5.578125 "/></g></g></g><g fill="#000000" fill-opacity="1"><g transform="translate(147.804417, 58.35745)"><g/></g></g><g fill="#000000" fill-opacity="1"><g transform="translate(152.428359, 58.35745)"><g><path d="M 5.46875 -7.15625 C 5.65625 -7.15625 5.804688 -7.101562 5.921875 -7 C 6.035156 -6.894531 6.09375 -6.753906 6.09375 -6.578125 C 6.09375 -6.390625 6.035156 -6.242188 5.921875 -6.140625 C 5.804688 -6.035156 5.65625 -5.984375 5.46875 -5.984375 L 3.875 -5.984375 L 3.875 -0.625 C 3.875 -0.445312 3.804688 -0.296875 3.671875 -0.171875 C 3.546875 -0.0546875 3.382812 0 3.1875 0 C 3 0 2.84375 -0.0546875 2.71875 -0.171875 C 2.59375 -0.296875 2.53125 -0.445312 2.53125 -0.625 L 2.53125 -5.984375 L 0.9375 -5.984375 C 0.75 -5.984375 0.597656 -6.035156 0.484375 -6.140625 C 0.367188 -6.253906 0.3125 -6.398438 0.3125 -6.578125 C 0.3125 -6.753906 0.367188 -6.894531 0.484375 -7 C 0.609375 -7.101562 0.757812 -7.15625 0.9375 -7.15625 Z M 5.46875 -7.15625 "/></g></g></g><g fill="#000000" fill-opacity="1"><g transform="translate(160.59103, 58.35745)"><g><path d="M 3.515625 -5.578125 C 3.710938 -5.578125 3.878906 -5.519531 4.015625 -5.40625 C 4.160156 -5.289062 4.234375 -5.15625 4.234375 -5 C 4.234375 -4.78125 4.175781 -4.617188 4.0625 -4.515625 C 3.957031 -4.410156 3.832031 -4.359375 3.6875 -4.359375 C 3.582031 -4.359375 3.46875 -4.382812 3.34375 -4.4375 C 3.320312 -4.4375 3.273438 -4.445312 3.203125 -4.46875 C 3.128906 -4.488281 3.050781 -4.5 2.96875 -4.5 C 2.789062 -4.5 2.617188 -4.441406 2.453125 -4.328125 C 2.285156 -4.222656 2.148438 -4.0625 2.046875 -3.84375 C 1.941406 -3.625 1.890625 -3.359375 1.890625 -3.046875 L 1.890625 -0.625 C 1.890625 -0.445312 1.832031 -0.296875 1.71875 -0.171875 C 1.601562 -0.0546875 1.457031 0 1.28125 0 C 1.101562 0 0.957031 -0.0546875 0.84375 -0.171875 C 0.726562 -0.296875 0.671875 -0.445312 0.671875 -0.625 L 0.671875 -4.84375 C 0.671875 -5.019531 0.726562 -5.164062 0.84375 -5.28125 C 0.957031 -5.40625 1.101562 -5.46875 1.28125 -5.46875 C 1.457031 -5.46875 1.601562 -5.40625 1.71875 -5.28125 C 1.832031 -5.164062 1.890625 -5.019531 1.890625 -4.84375 L 1.890625 -4.71875 C 2.046875 -5 2.269531 -5.210938 2.5625 -5.359375 C 2.863281 -5.503906 3.179688 -5.578125 3.515625 -5.578125 Z M 3.515625 -5.578125 "/></g></g></g><g fill="#000000" fill-opacity="1"><g transform="translate(166.79001, 58.35745)"><g><path d="M 5.09375 -5.578125 C 5.269531 -5.578125 5.414062 -5.519531 5.53125 -5.40625 C 5.644531 -5.289062 5.703125 -5.140625 5.703125 -4.953125 L 5.703125 -0.625 C 5.703125 -0.445312 5.644531 -0.296875 5.53125 -0.171875 C 5.414062 -0.0546875 5.269531 0 5.09375 0 C 4.914062 0 4.769531 -0.0546875 4.65625 -0.171875 C 4.550781 -0.285156 4.492188 -0.429688 4.484375 -0.609375 C 4.316406 -0.410156 4.085938 -0.238281 3.796875 -0.09375 C 3.503906 0.0390625 3.195312 0.109375 2.875 0.109375 C 2.40625 0.109375 1.976562 -0.0078125 1.59375 -0.25 C 1.207031 -0.5 0.90625 -0.835938 0.6875 -1.265625 C 0.46875 -1.691406 0.359375 -2.179688 0.359375 -2.734375 C 0.359375 -3.273438 0.46875 -3.757812 0.6875 -4.1875 C 0.90625 -4.625 1.203125 -4.960938 1.578125 -5.203125 C 1.960938 -5.453125 2.378906 -5.578125 2.828125 -5.578125 C 3.160156 -5.578125 3.46875 -5.515625 3.75 -5.390625 C 4.039062 -5.273438 4.285156 -5.125 4.484375 -4.9375 L 4.484375 -4.953125 C 4.484375 -5.128906 4.539062 -5.273438 4.65625 -5.390625 C 4.769531 -5.515625 4.914062 -5.578125 5.09375 -5.578125 Z M 3.03125 -1.015625 C 3.46875 -1.015625 3.828125 -1.175781 4.109375 -1.5 C 4.390625 -1.832031 4.53125 -2.242188 4.53125 -2.734375 C 4.53125 -3.222656 4.390625 -3.628906 4.109375 -3.953125 C 3.828125 -4.285156 3.46875 -4.453125 3.03125 -4.453125 C 2.59375 -4.453125 2.234375 -4.285156 1.953125 -3.953125 C 1.671875 -3.628906 1.53125 -3.222656 1.53125 -2.734375 C 1.53125 -2.242188 1.664062 -1.832031 1.9375 -1.5 C 2.21875 -1.175781 2.582031 -1.015625 3.03125 -1.015625 Z M 3.03125 -1.015625 "/></g></g></g><g fill="#000000" fill-opacity="1"><g transform="translate(174.922001, 58.35745)"><g><path d="M 3.59375 -5.578125 C 4.289062 -5.578125 4.769531 -5.367188 5.03125 -4.953125 C 5.300781 -4.546875 5.4375 -3.976562 5.4375 -3.25 L 5.4375 -0.625 C 5.4375 -0.445312 5.378906 -0.296875 5.265625 -0.171875 C 5.148438 -0.0546875 5.003906 0 4.828125 0 C 4.640625 0 4.488281 -0.0546875 4.375 -0.171875 C 4.257812 -0.296875 4.203125 -0.445312 4.203125 -0.625 L 4.203125 -3.25 C 4.203125 -3.625 4.125 -3.914062 3.96875 -4.125 C 3.8125 -4.34375 3.539062 -4.453125 3.15625 -4.453125 C 2.757812 -4.453125 2.445312 -4.335938 2.21875 -4.109375 C 2 -3.878906 1.890625 -3.59375 1.890625 -3.25 L 1.890625 -0.625 C 1.890625 -0.445312 1.832031 -0.296875 1.71875 -0.171875 C 1.601562 -0.0546875 1.457031 0 1.28125 0 C 1.101562 0 0.957031 -0.0546875 0.84375 -0.171875 C 0.726562 -0.296875 0.671875 -0.445312 0.671875 -0.625 L 0.671875 -4.84375 C 0.671875 -5.019531 0.726562 -5.164062 0.84375 -5.28125 C 0.957031 -5.40625 1.101562 -5.46875 1.28125 -5.46875 C 1.457031 -5.46875 1.601562 -5.40625 1.71875 -5.28125 C 1.832031 -5.164062 1.890625 -5.019531 1.890625 -4.84375 L 1.890625 -4.671875 C 2.078125 -4.921875 2.316406 -5.132812 2.609375 -5.3125 C 2.910156 -5.488281 3.238281 -5.578125 3.59375 -5.578125 Z M 3.59375 -5.578125 "/></g></g></g><g fill="#000000" fill-opacity="1"><g transform="translate(182.777855, 58.35745)"><g><path d="M 0.34375 -0.84375 C 0.28125 -0.925781 0.25 -1.03125 0.25 -1.15625 C 0.25 -1.332031 0.335938 -1.484375 0.515625 -1.609375 C 0.617188 -1.671875 0.71875 -1.703125 0.8125 -1.703125 C 0.957031 -1.703125 1.097656 -1.632812 1.234375 -1.5 C 1.429688 -1.289062 1.640625 -1.132812 1.859375 -1.03125 C 2.085938 -0.925781 2.359375 -0.875 2.671875 -0.875 C 3.203125 -0.894531 3.46875 -1.097656 3.46875 -1.484375 C 3.46875 -1.679688 3.375 -1.832031 3.1875 -1.9375 C 3.007812 -2.039062 2.734375 -2.140625 2.359375 -2.234375 C 1.960938 -2.347656 1.640625 -2.457031 1.390625 -2.5625 C 1.140625 -2.675781 0.921875 -2.84375 0.734375 -3.0625 C 0.554688 -3.28125 0.46875 -3.578125 0.46875 -3.953125 C 0.46875 -4.285156 0.5625 -4.570312 0.75 -4.8125 C 0.9375 -5.050781 1.179688 -5.238281 1.484375 -5.375 C 1.785156 -5.507812 2.109375 -5.578125 2.453125 -5.578125 C 2.804688 -5.578125 3.15625 -5.507812 3.5 -5.375 C 3.84375 -5.25 4.113281 -5.0625 4.3125 -4.8125 C 4.40625 -4.695312 4.453125 -4.570312 4.453125 -4.4375 C 4.453125 -4.28125 4.382812 -4.148438 4.25 -4.046875 C 4.15625 -3.972656 4.050781 -3.9375 3.9375 -3.9375 C 3.78125 -3.9375 3.65625 -3.984375 3.5625 -4.078125 C 3.4375 -4.234375 3.273438 -4.351562 3.078125 -4.4375 C 2.890625 -4.53125 2.671875 -4.578125 2.421875 -4.578125 C 1.898438 -4.578125 1.640625 -4.390625 1.640625 -4.015625 C 1.640625 -3.859375 1.6875 -3.734375 1.78125 -3.640625 C 1.882812 -3.554688 2.007812 -3.488281 2.15625 -3.4375 C 2.300781 -3.382812 2.507812 -3.320312 2.78125 -3.25 C 3.144531 -3.144531 3.445312 -3.035156 3.6875 -2.921875 C 3.9375 -2.816406 4.144531 -2.648438 4.3125 -2.421875 C 4.488281 -2.203125 4.578125 -1.90625 4.578125 -1.53125 C 4.578125 -1.195312 4.476562 -0.90625 4.28125 -0.65625 C 4.082031 -0.40625 3.828125 -0.210938 3.515625 -0.078125 C 3.203125 0.046875 2.882812 0.109375 2.5625 0.109375 C 2.113281 0.109375 1.691406 0.0351562 1.296875 -0.109375 C 0.910156 -0.265625 0.59375 -0.507812 0.34375 -0.84375 Z M 0.34375 -0.84375 "/></g></g></g><g fill="#000000" fill-opacity="1"><g transform="translate(189.467752, 58.35745)"><g><path d="M 3.5 -5.578125 C 3.96875 -5.578125 4.394531 -5.453125 4.78125 -5.203125 C 5.164062 -4.960938 5.46875 -4.628906 5.6875 -4.203125 C 5.90625 -3.773438 6.015625 -3.289062 6.015625 -2.75 C 6.015625 -2.195312 5.90625 -1.703125 5.6875 -1.265625 C 5.46875 -0.835938 5.171875 -0.5 4.796875 -0.25 C 4.421875 -0.0078125 4.003906 0.109375 3.546875 0.109375 C 3.210938 0.109375 2.898438 0.0390625 2.609375 -0.09375 C 2.328125 -0.226562 2.085938 -0.390625 1.890625 -0.578125 L 1.890625 1.421875 C 1.890625 1.597656 1.832031 1.742188 1.71875 1.859375 C 1.601562 1.984375 1.457031 2.046875 1.28125 2.046875 C 1.101562 2.046875 0.957031 1.988281 0.84375 1.875 C 0.726562 1.757812 0.671875 1.609375 0.671875 1.421875 L 0.671875 -4.84375 C 0.671875 -5.019531 0.726562 -5.164062 0.84375 -5.28125 C 0.957031 -5.40625 1.101562 -5.46875 1.28125 -5.46875 C 1.457031 -5.46875 1.601562 -5.40625 1.71875 -5.28125 C 1.832031 -5.164062 1.890625 -5.019531 1.890625 -4.84375 L 1.890625 -4.8125 C 2.054688 -5.007812 2.285156 -5.1875 2.578125 -5.34375 C 2.867188 -5.5 3.175781 -5.578125 3.5 -5.578125 Z M 3.34375 -1.015625 C 3.78125 -1.015625 4.140625 -1.175781 4.421875 -1.5 C 4.703125 -1.832031 4.84375 -2.25 4.84375 -2.75 C 4.84375 -3.238281 4.703125 -3.644531 4.421875 -3.96875 C 4.148438 -4.289062 3.789062 -4.453125 3.34375 -4.453125 C 2.90625 -4.453125 2.546875 -4.289062 2.265625 -3.96875 C 1.984375 -3.644531 1.84375 -3.238281 1.84375 -2.75 C 1.84375 -2.25 1.984375 -1.832031 2.265625 -1.5 C 2.546875 -1.175781 2.90625 -1.015625 3.34375 -1.015625 Z M 3.34375 -1.015625 "/></g></g></g><g fill="#000000" fill-opacity="1"><g transform="translate(197.599744, 58.35745)"><g><path d="M 5.09375 -5.578125 C 5.269531 -5.578125 5.414062 -5.519531 5.53125 -5.40625 C 5.644531 -5.289062 5.703125 -5.140625 5.703125 -4.953125 L 5.703125 -0.625 C 5.703125 -0.445312 5.644531 -0.296875 5.53125 -0.171875 C 5.414062 -0.0546875 5.269531 0 5.09375 0 C 4.914062 0 4.769531 -0.0546875 4.65625 -0.171875 C 4.550781 -0.285156 4.492188 -0.429688 4.484375 -0.609375 C 4.316406 -0.410156 4.085938 -0.238281 3.796875 -0.09375 C 3.503906 0.0390625 3.195312 0.109375 2.875 0.109375 C 2.40625 0.109375 1.976562 -0.0078125 1.59375 -0.25 C 1.207031 -0.5 0.90625 -0.835938 0.6875 -1.265625 C 0.46875 -1.691406 0.359375 -2.179688 0.359375 -2.734375 C 0.359375 -3.273438 0.46875 -3.757812 0.6875 -4.1875 C 0.90625 -4.625 1.203125 -4.960938 1.578125 -5.203125 C 1.960938 -5.453125 2.378906 -5.578125 2.828125 -5.578125 C 3.160156 -5.578125 3.46875 -5.515625 3.75 -5.390625 C 4.039062 -5.273438 4.285156 -5.125 4.484375 -4.9375 L 4.484375 -4.953125 C 4.484375 -5.128906 4.539062 -5.273438 4.65625 -5.390625 C 4.769531 -5.515625 4.914062 -5.578125 5.09375 -5.578125 Z M 3.03125 -1.015625 C 3.46875 -1.015625 3.828125 -1.175781 4.109375 -1.5 C 4.390625 -1.832031 4.53125 -2.242188 4.53125 -2.734375 C 4.53125 -3.222656 4.390625 -3.628906 4.109375 -3.953125 C 3.828125 -4.285156 3.46875 -4.453125 3.03125 -4.453125 C 2.59375 -4.453125 2.234375 -4.285156 1.953125 -3.953125 C 1.671875 -3.628906 1.53125 -3.222656 1.53125 -2.734375 C 1.53125 -2.242188 1.664062 -1.832031 1.9375 -1.5 C 2.21875 -1.175781 2.582031 -1.015625 3.03125 -1.015625 Z M 3.03125 -1.015625 "/></g></g></g><g fill="#000000" fill-opacity="1"><g transform="translate(205.731735, 58.35745)"><g><path d="M 3.515625 -5.578125 C 3.710938 -5.578125 3.878906 -5.519531 4.015625 -5.40625 C 4.160156 -5.289062 4.234375 -5.15625 4.234375 -5 C 4.234375 -4.78125 4.175781 -4.617188 4.0625 -4.515625 C 3.957031 -4.410156 3.832031 -4.359375 3.6875 -4.359375 C 3.582031 -4.359375 3.46875 -4.382812 3.34375 -4.4375 C 3.320312 -4.4375 3.273438 -4.445312 3.203125 -4.46875 C 3.128906 -4.488281 3.050781 -4.5 2.96875 -4.5 C 2.789062 -4.5 2.617188 -4.441406 2.453125 -4.328125 C 2.285156 -4.222656 2.148438 -4.0625 2.046875 -3.84375 C 1.941406 -3.625 1.890625 -3.359375 1.890625 -3.046875 L 1.890625 -0.625 C 1.890625 -0.445312 1.832031 -0.296875 1.71875 -0.171875 C 1.601562 -0.0546875 1.457031 0 1.28125 0 C 1.101562 0 0.957031 -0.0546875 0.84375 -0.171875 C 0.726562 -0.296875 0.671875 -0.445312 0.671875 -0.625 L 0.671875 -4.84375 C 0.671875 -5.019531 0.726562 -5.164062 0.84375 -5.28125 C 0.957031 -5.40625 1.101562 -5.46875 1.28125 -5.46875 C 1.457031 -5.46875 1.601562 -5.40625 1.71875 -5.28125 C 1.832031 -5.164062 1.890625 -5.019531 1.890625 -4.84375 L 1.890625 -4.71875 C 2.046875 -5 2.269531 -5.210938 2.5625 -5.359375 C 2.863281 -5.503906 3.179688 -5.578125 3.515625 -5.578125 Z M 3.515625 -5.578125 "/></g></g></g><g fill="#000000" fill-opacity="1"><g transform="translate(211.930715, 58.35745)"><g><path d="M 5.578125 -2.859375 C 5.566406 -2.703125 5.5 -2.570312 5.375 -2.46875 C 5.257812 -2.363281 5.117188 -2.3125 4.953125 -2.3125 L 1.578125 -2.3125 C 1.660156 -1.90625 1.847656 -1.585938 2.140625 -1.359375 C 2.429688 -1.128906 2.757812 -1.015625 3.125 -1.015625 C 3.40625 -1.015625 3.625 -1.039062 3.78125 -1.09375 C 3.9375 -1.144531 4.0625 -1.195312 4.15625 -1.25 C 4.25 -1.3125 4.3125 -1.351562 4.34375 -1.375 C 4.46875 -1.4375 4.585938 -1.46875 4.703125 -1.46875 C 4.835938 -1.46875 4.957031 -1.414062 5.0625 -1.3125 C 5.164062 -1.21875 5.21875 -1.101562 5.21875 -0.96875 C 5.21875 -0.78125 5.125 -0.609375 4.9375 -0.453125 C 4.738281 -0.296875 4.476562 -0.160156 4.15625 -0.046875 C 3.84375 0.0546875 3.519531 0.109375 3.1875 0.109375 C 2.613281 0.109375 2.113281 -0.0078125 1.6875 -0.25 C 1.257812 -0.488281 0.929688 -0.816406 0.703125 -1.234375 C 0.472656 -1.660156 0.359375 -2.132812 0.359375 -2.65625 C 0.359375 -3.25 0.476562 -3.765625 0.71875 -4.203125 C 0.96875 -4.648438 1.289062 -4.988281 1.6875 -5.21875 C 2.09375 -5.457031 2.523438 -5.578125 2.984375 -5.578125 C 3.429688 -5.578125 3.851562 -5.453125 4.25 -5.203125 C 4.65625 -4.960938 4.976562 -4.632812 5.21875 -4.21875 C 5.457031 -3.800781 5.578125 -3.347656 5.578125 -2.859375 Z M 2.984375 -4.453125 C 2.191406 -4.453125 1.726562 -4.082031 1.59375 -3.34375 L 4.265625 -3.34375 L 4.265625 -3.40625 C 4.242188 -3.695312 4.101562 -3.941406 3.84375 -4.140625 C 3.59375 -4.347656 3.304688 -4.453125 2.984375 -4.453125 Z M 2.984375 -4.453125 "/></g></g></g><g fill="#000000" fill-opacity="1"><g transform="translate(219.622922, 58.35745)"><g><path d="M 3.59375 -5.578125 C 4.289062 -5.578125 4.769531 -5.367188 5.03125 -4.953125 C 5.300781 -4.546875 5.4375 -3.976562 5.4375 -3.25 L 5.4375 -0.625 C 5.4375 -0.445312 5.378906 -0.296875 5.265625 -0.171875 C 5.148438 -0.0546875 5.003906 0 4.828125 0 C 4.640625 0 4.488281 -0.0546875 4.375 -0.171875 C 4.257812 -0.296875 4.203125 -0.445312 4.203125 -0.625 L 4.203125 -3.25 C 4.203125 -3.625 4.125 -3.914062 3.96875 -4.125 C 3.8125 -4.34375 3.539062 -4.453125 3.15625 -4.453125 C 2.757812 -4.453125 2.445312 -4.335938 2.21875 -4.109375 C 2 -3.878906 1.890625 -3.59375 1.890625 -3.25 L 1.890625 -0.625 C 1.890625 -0.445312 1.832031 -0.296875 1.71875 -0.171875 C 1.601562 -0.0546875 1.457031 0 1.28125 0 C 1.101562 0 0.957031 -0.0546875 0.84375 -0.171875 C 0.726562 -0.296875 0.671875 -0.445312 0.671875 -0.625 L 0.671875 -4.84375 C 0.671875 -5.019531 0.726562 -5.164062 0.84375 -5.28125 C 0.957031 -5.40625 1.101562 -5.46875 1.28125 -5.46875 C 1.457031 -5.46875 1.601562 -5.40625 1.71875 -5.28125 C 1.832031 -5.164062 1.890625 -5.019531 1.890625 -4.84375 L 1.890625 -4.671875 C 2.078125 -4.921875 2.316406 -5.132812 2.609375 -5.3125 C 2.910156 -5.488281 3.238281 -5.578125 3.59375 -5.578125 Z M 3.59375 -5.578125 "/></g></g></g><g fill="#000000" fill-opacity="1"><g transform="translate(227.478776, 58.35745)"><g><path d="M 3.046875 -5.578125 C 3.628906 -5.578125 4.097656 -5.484375 4.453125 -5.296875 C 4.804688 -5.117188 4.984375 -4.878906 4.984375 -4.578125 C 4.984375 -4.429688 4.9375 -4.300781 4.84375 -4.1875 C 4.757812 -4.070312 4.644531 -4.015625 4.5 -4.015625 C 4.394531 -4.015625 4.304688 -4.03125 4.234375 -4.0625 C 4.171875 -4.09375 4.101562 -4.132812 4.03125 -4.1875 C 3.96875 -4.238281 3.90625 -4.28125 3.84375 -4.3125 C 3.78125 -4.351562 3.679688 -4.382812 3.546875 -4.40625 C 3.410156 -4.4375 3.300781 -4.453125 3.21875 -4.453125 C 2.707031 -4.453125 2.304688 -4.289062 2.015625 -3.96875 C 1.734375 -3.65625 1.59375 -3.242188 1.59375 -2.734375 C 1.59375 -2.242188 1.738281 -1.832031 2.03125 -1.5 C 2.320312 -1.175781 2.695312 -1.015625 3.15625 -1.015625 C 3.488281 -1.015625 3.738281 -1.054688 3.90625 -1.140625 C 3.9375 -1.160156 3.988281 -1.195312 4.0625 -1.25 C 4.132812 -1.300781 4.203125 -1.335938 4.265625 -1.359375 C 4.328125 -1.390625 4.40625 -1.40625 4.5 -1.40625 C 4.664062 -1.40625 4.796875 -1.347656 4.890625 -1.234375 C 4.992188 -1.128906 5.046875 -0.992188 5.046875 -0.828125 C 5.046875 -0.660156 4.945312 -0.503906 4.75 -0.359375 C 4.5625 -0.222656 4.3125 -0.109375 4 -0.015625 C 3.6875 0.0664062 3.351562 0.109375 3 0.109375 C 2.46875 0.109375 2.003906 -0.015625 1.609375 -0.265625 C 1.210938 -0.515625 0.90625 -0.851562 0.6875 -1.28125 C 0.46875 -1.71875 0.359375 -2.203125 0.359375 -2.734375 C 0.359375 -3.285156 0.472656 -3.773438 0.703125 -4.203125 C 0.929688 -4.628906 1.25 -4.960938 1.65625 -5.203125 C 2.0625 -5.453125 2.523438 -5.578125 3.046875 -5.578125 Z M 3.046875 -5.578125 "/></g></g></g><g fill="#000000" fill-opacity="1"><g transform="translate(234.506193, 58.35745)"><g><path d="M 4.734375 -5.46875 C 4.910156 -5.46875 5.054688 -5.40625 5.171875 -5.28125 C 5.285156 -5.164062 5.34375 -5.019531 5.34375 -4.84375 L 5.34375 -0.5 C 5.34375 0.382812 5.101562 1.03125 4.625 1.4375 C 4.144531 1.84375 3.507812 2.046875 2.71875 2.046875 C 2.476562 2.046875 2.238281 2.023438 2 1.984375 C 1.757812 1.953125 1.5625 1.90625 1.40625 1.84375 C 1.070312 1.695312 0.90625 1.5 0.90625 1.25 C 0.90625 1.195312 0.914062 1.140625 0.9375 1.078125 C 0.976562 0.929688 1.046875 0.816406 1.140625 0.734375 C 1.242188 0.660156 1.351562 0.625 1.46875 0.625 C 1.539062 0.625 1.609375 0.632812 1.671875 0.65625 C 1.710938 0.675781 1.789062 0.707031 1.90625 0.75 C 2.03125 0.800781 2.160156 0.84375 2.296875 0.875 C 2.429688 0.90625 2.570312 0.921875 2.71875 0.921875 C 3.195312 0.921875 3.550781 0.816406 3.78125 0.609375 C 4.007812 0.398438 4.125 0.046875 4.125 -0.453125 L 4.125 -0.5625 C 3.769531 -0.113281 3.21875 0.109375 2.46875 0.109375 C 2.113281 0.109375 1.796875 0.0234375 1.515625 -0.140625 C 1.242188 -0.316406 1.035156 -0.550781 0.890625 -0.84375 C 0.742188 -1.144531 0.671875 -1.484375 0.671875 -1.859375 L 0.671875 -4.84375 C 0.671875 -5.019531 0.726562 -5.164062 0.84375 -5.28125 C 0.957031 -5.40625 1.101562 -5.46875 1.28125 -5.46875 C 1.457031 -5.46875 1.601562 -5.40625 1.71875 -5.28125 C 1.832031 -5.164062 1.890625 -5.019531 1.890625 -4.84375 L 1.890625 -2.234375 C 1.890625 -1.804688 1.984375 -1.492188 2.171875 -1.296875 C 2.359375 -1.109375 2.632812 -1.015625 3 -1.015625 C 3.351562 -1.015625 3.625 -1.117188 3.8125 -1.328125 C 4.007812 -1.535156 4.109375 -1.835938 4.109375 -2.234375 L 4.109375 -4.84375 C 4.109375 -5.019531 4.164062 -5.164062 4.28125 -5.28125 C 4.40625 -5.40625 4.554688 -5.46875 4.734375 -5.46875 Z M 4.734375 -5.46875 "/></g></g></g></svg>